# Blender 3.3.1
# www.blender.org
mtllib arwing.mtl
o Arwing.002
v -0.157674 0.658789 0.636509
v 0.157282 1.191680 -0.648820
v -0.157674 1.191680 -0.648820
v 0.157282 0.658789 0.636510
v 0.354133 0.735800 -0.273302
v -0.354524 0.735800 -0.273302
v -1.220670 0.477053 -0.584587
v -0.866336 0.089177 -0.448857
v -1.889960 -0.030716 -0.482857
v -1.220270 0.167731 0.414467
v -0.354524 0.008689 -0.484527
v 0.354133 0.008696 -0.484921
v -0.354133 0.012165 0.460955
v 0.354527 0.012165 0.460955
v -0.078541 0.160120 1.991350
v 0.078937 0.160120 1.991350
v 0.865944 0.089177 -0.448856
v 1.889570 -0.030710 -0.483250
v 1.220670 0.167731 0.414467
v 1.220270 0.477060 -0.584980
v 0.839568 -0.083410 -1.271700
v 1.369880 0.046314 -0.945355
v 1.065950 -0.450375 -1.945570
v 1.367910 -0.069824 -0.924162
v 1.492320 -0.406907 -1.662870
v 1.493500 -0.329482 -1.676870
v 0.845866 -0.093430 -1.284080
v 1.378940 -0.081287 -0.944052
v 1.064760 -0.457520 -1.942150
v 1.354130 -0.152573 -0.898446
v 1.500980 -0.495096 -1.663630
v 1.502560 -0.417671 -1.677630
v -1.502950 -0.417284 -1.677230
v -1.378940 -0.081294 -0.943658
v -0.845863 -0.093437 -1.283690
v -1.354530 -0.152972 -0.898060
v -1.064760 -0.457520 -1.942150
v -1.501380 -0.494709 -1.663230
v -1.493890 -0.329489 -1.676480
v -1.370270 0.046307 -0.944961
v -0.839565 -0.083417 -1.271310
v -1.367910 -0.069824 -0.924163
v -1.066340 -0.450382 -1.945180
v -1.492320 -0.406914 -1.662480
v -0.630116 0.480400 -0.506169
v -0.000196 0.110690 -0.844209
v -0.275391 0.517739 2.053940
v 0.000197 0.687596 3.188980
v -0.157282 0.687595 0.588189
v -0.157283 0.321096 2.062690
v -0.550983 0.167731 0.414467
v 0.629724 0.480400 -0.506169
v 0.550985 0.167731 0.414467
v 0.157676 0.321096 2.062690
v 0.275787 0.517739 2.053940
v 0.157677 0.687601 0.587795
v -0.157674 1.222550 -0.658122
v 0.157282 1.222550 -0.658122
v -0.000196 0.804545 -2.057800
v 1.357680 0.030872 -0.962951
v 1.804130 0.130054 -0.153211
v 1.497050 -0.342761 -1.683010
v 1.339960 0.425713 -0.553593
v 0.901772 0.303041 -0.832956
v 1.333660 0.077306 -0.490410
v 1.354130 -0.162688 -0.927762
v 1.026180 -0.077280 -1.149920
v 1.494290 -0.498002 -1.655020
v 1.092320 -0.458329 -1.918540
v 1.373430 -0.520540 -2.232670
v 1.607680 -0.519131 -2.200750
v 1.767910 -0.457576 -1.625170
v 1.890750 -0.636746 -1.938600
v 1.762400 -0.742830 -3.633250
v -1.804520 0.130047 -0.152818
v -1.497040 -0.342768 -1.682620
v -1.767910 -0.457583 -1.624780
v -1.358070 0.030872 -0.962952
v -1.339960 0.425713 -0.553593
v -1.333660 0.077299 -0.490016
v -1.354530 -0.162688 -0.927762
v -1.494290 -0.498009 -1.654630
v -1.891140 -0.636746 -1.938600
v -1.373820 -0.520547 -2.232280
v -1.762790 -0.742837 -3.632850
v -1.607670 -0.519131 -2.200750
v -1.092710 -0.458329 -1.918540
v -1.026180 -0.077287 -1.149530
v -0.901770 0.303041 -0.832956
v -0.000196 0.244741 -0.495345
v -0.000196 0.755860 -0.518657
v -0.354524 0.727271 -0.280933
v 0.354133 0.727271 -0.280933
v -0.866335 1.404900 -1.848410
v 0.865944 1.404910 -1.848800
v -0.865944 0.237261 1.948600
v 0.866338 0.237268 1.948210
v 0.846655 -0.240109 0.117496
v 1.200590 -0.643821 -0.100650
v 1.200980 -0.161432 1.848280
v 1.200590 -0.300500 -1.219600
v 1.515550 -0.240109 0.117496
v -1.200590 -0.161432 1.848280
v -1.515940 -0.239722 0.117897
v -1.200980 -0.643828 -0.100256
v -1.200980 -0.300500 -1.219600
v -0.846652 -0.239722 0.117897
v 1.121850 0.173013 -0.334768
v 1.239960 -0.220274 -0.316868
v 1.121850 -0.220274 -0.316868
v 1.239960 0.173013 -0.334768
v 1.239960 0.190914 0.058520
v 1.239960 -0.191557 0.312473
v 1.121850 -0.191557 0.312473
v 1.121850 0.190914 0.058520
v -1.240350 0.173006 -0.334375
v -1.122240 -0.220281 -0.316475
v -1.240350 -0.220281 -0.316475
v -1.122240 0.173006 -0.334375
v -1.122240 0.190907 0.058914
v -1.122240 -0.191557 0.312473
v -1.240350 0.190907 0.058914
v -1.240350 -0.191557 0.312473
vn -0.3015 0.8808 0.3652
vn 0.3015 0.8808 0.3652
vn -0.4589 0.8207 0.3403
vn 0.4589 0.8208 0.3403
vn 0.8154 0.5347 0.2217
vn -0.8154 0.5347 0.2217
vn -0.4693 0.0097 -0.8830
vn -0.1153 -0.8668 -0.4851
vn -0.4602 -0.5606 -0.6884
vn -0.8328 -0.4388 0.3375
vn -0.2082 -0.8492 -0.4852
vn 0.1712 -0.9012 -0.3981
vn -0.3917 -0.9000 0.1912
vn 0.3907 -0.8966 0.2086
vn -0.2562 -0.8811 0.3975
vn 0.3501 -0.7901 0.5031
vn 0.1155 -0.8668 -0.4851
vn 0.4598 -0.5610 -0.6884
vn 0.8330 -0.4390 0.3368
vn 0.4690 0.0089 -0.8832
vn -0.5432 -0.4540 0.7063
vn -0.2246 0.9734 -0.0450
vn 0.2976 0.4667 -0.8328
vn -0.4790 -0.4623 0.7462
vn 0.0750 -0.9971 -0.0114
vn 0.3729 0.4654 -0.8027
vn -0.6522 -0.2105 0.7282
vn -0.0216 0.9985 -0.0512
vn 0.3774 0.4767 -0.7939
vn -0.6056 -0.2219 0.7642
vn -0.0750 -0.9947 -0.0703
vn 0.4246 0.4698 -0.7740
vn -0.3697 0.6530 -0.6610
vn 0.1483 0.9689 0.1979
vn 0.2635 0.9540 0.1430
vn 0.5238 -0.5520 0.6488
vn -0.0315 -0.8734 -0.4859
vn -0.1911 -0.8883 -0.4176
vn -0.2678 0.6578 -0.7039
vn 0.4003 0.8631 0.3080
vn 0.5302 0.8133 0.2394
vn 0.3825 -0.6579 0.6488
vn -0.1644 -0.8950 -0.4147
vn -0.3242 -0.8779 -0.3524
vn -0.4216 0.2214 -0.8793
vn -0.0001 0.0131 -0.9999
vn -0.9615 0.2167 0.1688
vn -0.0000 0.5536 0.8328
vn -0.4022 0.9127 0.0725
vn -0.6891 -0.6091 0.3927
vn 0.7779 -0.5177 0.3561
vn 0.4215 0.2218 -0.8793
vn -0.7780 -0.5173 0.3566
vn 0.6892 -0.6089 0.3927
vn 0.9616 0.2165 0.1687
vn 0.3356 0.9395 0.0685
vn -0.4609 0.8730 0.1594
vn 0.3372 0.8531 0.3981
vn -0.0002 0.7967 -0.6044
vn 0.2654 0.5964 -0.7576
vn 0.7140 0.5284 0.4593
vn -0.2628 0.9413 -0.2121
vn -0.1205 0.9481 0.2941
vn -0.9612 0.1479 0.2329
vn -0.5971 -0.3650 0.7143
vn -0.5449 -0.8174 0.1869
vn 0.1704 -0.1293 -0.9769
vn -0.4073 -0.8186 0.4050
vn -0.7779 0.1247 0.6159
vn -0.8184 -0.0211 -0.5743
vn 0.3046 0.9295 -0.2080
vn 0.9408 -0.1012 0.3235
vn 0.4291 -0.8576 0.2836
vn 0.2160 0.9613 -0.1709
vn -0.7143 0.5286 0.4586
vn 0.0631 0.9814 -0.1815
vn -0.9407 -0.1010 0.3238
vn -0.0337 0.5947 -0.8033
vn 0.1204 0.9483 0.2938
vn 0.5972 -0.3648 0.7143
vn 0.3864 -0.8898 0.2429
vn 0.5764 -0.7476 0.3300
vn -0.4287 -0.8578 0.2835
vn 0.8184 -0.0211 -0.5743
vn -0.2151 0.9615 -0.1709
vn -0.3042 0.9296 -0.2079
vn 0.7786 0.1245 0.6150
vn -0.1693 -0.1297 -0.9770
vn 0.9613 0.1481 0.2325
vn -0.0000 0.7151 -0.6990
vn -0.0000 -0.8714 -0.4905
vn -0.4111 0.8656 0.2858
vn 0.5675 0.8016 0.1882
vn 0.2434 0.9665 -0.0816
vn -0.2428 0.9667 -0.0816
vn 0.0787 0.1038 0.9915
vn -0.0790 0.1053 0.9913
vn -0.9006 0.4304 -0.0599
vn 0.0297 -0.9995 -0.0051
vn 0.0878 -0.7758 0.6248
vn 0.0792 -0.3340 -0.9393
vn 0.8900 0.4526 -0.0547
vn -0.0881 -0.7752 0.6255
vn -0.8899 0.4528 -0.0545
vn -0.0299 -0.9995 -0.0050
vn -0.0799 -0.3335 -0.9393
vn 0.9007 0.4303 -0.0601
vn -0.8944 -0.0206 -0.4467
vn 0.8944 -0.0202 -0.4467
vn -0.7071 -0.0322 -0.7064
vn 0.7071 -0.0321 -0.7064
vn 0.8944 0.2474 0.3726
vn 0.7071 0.3911 0.5891
vn -0.8944 0.2476 0.3724
vn -0.7071 0.3911 0.5891
vn -0.8944 -0.0203 -0.4467
vn 0.8944 -0.0205 -0.4467
vn 0.8945 0.2472 0.3727
vn 0.7071 0.3907 0.5894
vn -0.7071 0.3907 0.5894
vn -0.8944 0.2471 0.3728
vt -0.000000 -0.016600
vt -2.580080 1.000000
vt 1.000000 1.000000
vt -2.479490 1.000000
vt 1.000000 -0.000000
vt 0.999023 0.999023
vt -0.000000 1.000000
vt 0.999023 1.000000
vt -1.124020 0.107420
vt -0.393550 0.081060
vt 1.000000 0.999023
vt 1.000000 0.000000
vt 0.501465 0.253907
vt 1.000000 1.000000
vt 0.000000 0.999023
vt 0.569340 1.778320
vt 1.000000 0.000000
vt -0.000000 1.000000
vt 0.235840 -0.094727
vt 1.000000 0.000000
vt 1.000000 0.999023
vt 1.000000 1.000000
vt -0.000000 0.999023
vt 0.499025 -0.497315
vt 1.008790 1.047850
vt -0.000000 1.000000
vt 0.500000 0.333333
vt 1.039060 -0.391600
vt -0.000000 1.000000
vt 1.000000 0.999023
vt -0.038090 -0.391600
vt 0.000000 0.999023
vt 0.983400 0.989260
vt 0.998050 1.003910
vt 0.995120 0.999023
vt 1.000000 1.000000
vt 1.000000 0.999023
vt 0.217770 1.836910
vt 0.000000 0.999023
vt 1.000000 -0.000000
vt 0.000000 1.000000
vt -0.000000 0.999023
vt 1.000000 -0.000000
vt 1.000000 0.999023
vt 0.780270 1.834960
vt 0.625000 3.217770
vt 1.000000 1.000000
vt -0.000000 0.499511
vt 0.375000 3.217770
vt 1.000000 1.000000
vt 0.499751 0.499511
vt 0.430660 1.778320
vt 0.000000 0.999023
vt 1.000000 0.000000
vt -0.000000 1.000000
vt 0.264160 -0.094727
vt 1.000000 0.000000
vt 1.000000 0.999023
vt 1.012690 0.987300
vt -0.000000 0.999023
vt 0.000000 -0.502442
vt -2.673830 0.870120
vt 1.000000 0.999023
vt 0.000000 0.333008
vt 1.000000 1.000000
vt 1.000000 0.000000
vt 0.000000 0.250000
vt 0.000000 0.999023
vt 1.350590 2.380860
vt -0.398440 -4.082030
vt 1.442380 -0.425780
vt 0.999023 0.999023
vt 2.002930 1.000000
vt -0.481450 -0.114260
vt -0.762700 7.969730
vt -0.508790 2.089840
vt 0.000000 1.000000
vt 2.007810 0.995120
vt -0.000000 1.000000
vt 1.000000 1.000000
vt -0.000000 1.000000
vt 1.409180 2.435550
vt -0.190430 -5.431640
vt 0.529300 2.472660
vt -0.000000 1.000000
vt 1.997070 1.012690
vt 2.438480 2.170900
vt 1.000000 1.000000
vt -0.478520 2.112300
vt -1.000000 1.000000
vt 0.000000 1.000000
vt 2.020510 1.021480
vt 0.000000 1.000000
vt 0.011720 0.841800
vt 0.000000 1.000000
vt 0.000000 1.000000
vt 2.026370 0.995120
vt 0.000000 0.999023
vt 0.190430 -5.431640
vt 1.469730 2.457030
vt 1.436520 -0.450200
vt 1.000000 0.999023
vt 2.009770 0.996090
vt -0.425780 2.138670
vt 0.515630 7.298830
vt -0.480470 -0.131840
vt 0.000000 1.000000
vt 0.999023 0.999023
vt 1.000000 0.999023
vt 1.996090 1.006840
vt -0.000000 1.000000
vt 1.000000 0.999023
vt -0.398440 6.082030
vt 0.565430 -0.426760
vt 0.644530 2.377930
vt 0.000000 0.999023
vt -0.000000 1.000000
vt 2.500000 -0.118160
vt -0.762700 -5.969730
vt 2.500000 2.094730
vt 2.016600 1.001950
vt 0.000000 1.000000
vt 1.000000 1.000000
vt 1.000000 0.000000
vt -0.000000 0.999023
vt -0.067870 -0.346190
vt 0.500000 0.500000
vt -0.080080 0.208483
vt 0.000000 0.250000
vt 0.859537 0.420900
vt 0.528320 0.459718
vt 0.000000 1.000000
vt 0.500000 0.508790
vt 1.000000 -0.000000
vt 0.500000 0.500000
vt 0.500000 0.499511
vt 1.000000 0.999023
vt 1.000000 1.000000
vt -0.801433 0.551270
vt 1.000000 0.000000
vt 0.250000 -0.616210
vt 0.500000 -0.811816
vt 0.000000 0.999023
vt 2.146480 2.723630
vt 0.286130 2.311520
vt 1.000000 0.100000
vt 0.152670 -0.032715
vt 0.000000 0.999023
vt 1.000000 -0.000000
vt -0.000000 1.000000
vt -0.249510 0.007815
vt -0.000000 0.249756
vt 0.052730 1.769530
vt 1.000000 0.999023
vt 0.500000 0.249756
vt -0.000000 1.000000
vt 1.000000 1.000000
vt 0.000000 0.333333
vt 1.000000 0.999023
vt 1.000000 0.000000
vt 0.000000 0.999023
vt 0.995120 0.998050
vt -0.000000 0.492675
vt -0.067870 1.346190
vt 0.581055 0.209458
vt 0.500000 0.249756
vt 0.000000 1.000000
vt 0.859537 0.420900
vt -0.027830 0.459717
vt 1.000000 1.000000
vt 1.000000 0.999023
vt 0.946290 1.767580
vt -0.000000 0.249756
vt -1.665040 0.918950
vt -0.000000 0.999023
vt 0.500000 0.333008
vt -0.000000 1.000000
vt 0.000000 0.999023
vt 1.000000 -0.000000
vt 0.750000 0.007815
vt 0.500000 0.249756
vt 1.000000 0.999023
vt 1.000000 1.000000
vt -0.801433 0.551270
vt 0.000000 1.000000
vt 2.146480 -0.723630
vt 0.713870 2.311520
vt 0.000000 0.100000
vt 0.152670 -0.032715
vt 0.000000 0.999023
vt 0.500000 0.333333
vt 0.046387 -0.181640
vt 1.000000 0.999023
vt 0.000000 0.333333
vt 0.046387 -0.181640
vt 0.526370 -0.004880
vt -0.030275 -0.662110
vt 0.547365 -0.663085
vt -0.159180 -0.743165
vt 0.659670 -0.743165
vt 0.801107 0.737300
vt 1.000000 1.000000
vt 0.000000 0.999023
vt 1.000000 0.999023
vt 0.999023 1.000000
vt -0.000000 0.999023
vt 1.000000 1.000000
vt 0.000000 1.000000
vt 0.070310 2.552730
vt 0.000000 1.000000
vt 1.000000 -0.000000
vt 1.000000 1.000000
vt 0.999023 0.000000
vt 1.000000 -0.000000
vt 1.000000 1.000000
vt -0.000000 1.000000
vt 0.796880 -0.541020
vt 0.000000 0.999023
vt 1.000000 -0.000000
vt 0.999023 -0.000000
vt 1.000000 -0.000000
vt 0.000000 1.000000
vt 0.999023 0.999023
vt 0.999023 -0.000000
vt -0.000000 1.000000
vt 1.000000 0.999023
vt 1.000000 1.000000
vt 0.999023 0.999023
vt 1.000000 -0.000000
vt -0.000000 1.000000
vt 1.000000 0.000000
vt 0.000000 0.999023
vt 1.000000 1.000000
vt 0.999023 0.000000
vt 1.000000 1.000000
vt 1.000000 0.000000
vt 0.000000 0.999023
vt 0.999023 0.999023
vt 0.999023 1.000000
vt 0.000000 1.000000
vt 1.000000 1.000000
vt 0.000000 1.000000
vt -0.000000 0.999023
vt 1.000000 0.000000
vt 1.000000 -0.000000
vt 0.999023 0.999023
vt -0.000000 1.000000
vt -0.000000 0.999023
vt 0.999023 -0.000000
vt 1.000000 1.000000
vt 1.000000 1.000000
vt 0.999023 -0.000000
vt 1.000000 0.000000
vt 0.000000 1.000000
vt 0.928710 2.552730
vt 0.000000 0.999023
vt 1.000000 1.000000
vt 1.000000 -0.000000
vt -0.000000 1.000000
vt 0.048830 1.315430
vt 1.000000 0.999023
vt 1.000000 1.000000
vt 0.999023 -0.000000
vt 1.000000 -0.000000
vt 0.633790 0.542970
vt -0.000000 1.000000
vt 1.696290 0.063480
vt 0.000000 0.999023
vt 1.000000 1.000000
vt 0.999023 0.999023
vt 0.000000 1.000000
vt -0.000000 1.000000
vt 1.000000 -0.000000
vt 1.000000 -0.000000
vt 1.000000 1.000000
vt 0.999023 1.000000
vt 1.000000 0.999023
vt 0.000000 1.000000
vt 1.000000 0.000000
vt 1.000000 1.000000
vt 1.000000 1.000000
vt 1.000000 0.999023
vt 0.000000 0.999023
vt 1.000000 -0.000000
vt -0.000000 1.000000
vt 0.000000 0.999023
vt 0.999023 1.000000
vt -0.000000 1.000000
vt 1.000000 1.000000
vt 0.999023 1.000000
vt 1.000000 0.000000
vt 0.999023 0.000000
vt 0.000000 1.000000
vt 0.999023 0.000000
vt 1.000000 0.000000
vt -0.000000 1.000000
vt 1.000000 0.000000
vt 0.999023 1.000000
vt 1.000000 1.000000
vt 1.000000 1.000000
vt -0.950200 1.315430
vt 0.999023 1.000000
vt 1.000000 0.000000
vt 0.999023 0.000000
vt 1.000000 1.000000
vt -0.000000 0.999023
vt 0.000000 1.000000
vt 0.202150 -0.541020
vt 1.000000 1.000000
vt -0.000000 0.500000
vt -0.000000 0.499511
vt 0.250485 -0.058383
vt 0.000000 0.500000
vt 0.500000 0.500000
vt 0.250490 0.521468
vt 0.500000 0.250000
vt 1.000000 1.000000
vt 0.000000 0.999023
vt 0.833985 0.001627
vt -0.141927 1.061520
vt -0.000000 0.249756
vt 1.000000 1.000000
vt 1.000000 0.999023
vt -0.333495 0.001627
vt -0.141927 1.061520
vt 0.635255 0.784180
vt -0.455080 1.343500
vt 0.666020 -1.649410
vt 0.283200 4.765630
vt -0.134765 0.784180
vt 0.962890 1.340090
vt 0.333980 -1.649410
vt -2.282230 4.641600
vt 0.601560 -1.192380
vt 0.516600 -1.273440
vt -2.037110 -1.319340
vt 0.483400 -1.273440
vt 1.000000 0.999023
vt 0.500000 0.333333
vt -0.000000 0.333333
vt 0.500000 0.580080
vt 0.500000 3.472660
vt 0.250000 -0.507487
vt 0.500000 -0.916020
vt 0.250000 -0.318360
vt -0.000000 0.999023
vt -0.000000 0.333333
vt 0.500000 0.333333
vt 0.500000 3.381840
vt 0.250000 -0.507487
vt 1.000000 1.000000
vt 0.500000 0.333008
vt 0.000000 0.333333
vt 0.500000 0.892580
vt 0.500000 -0.845700
vt 0.250000 -0.318360
vt 0.000000 1.000000
vt -0.000000 0.333008
vt 0.500000 0.333333
vt 1.000000 0.000000
vt 0.000000 0.999023
vt -0.033200 1.000000
vt 1.000000 0.999023
vt 1.000000 1.000000
vt 1.000000 0.999023
vt -0.033200 0.000000
vt 0.000000 0.999023
vt 0.000000 0.390630
vt 1.000000 0.000000
vt 1.000000 0.000000
vt 1.000000 1.000000
vt -0.000000 1.000000
vt 1.000000 0.000000
vt -0.000000 0.000000
vt 0.000000 0.390630
vt 1.000000 -0.000000
vt 0.000000 0.999023
vt -0.000000 1.000000
vt 1.000000 1.000000
vt 1.000000 1.000000
vt 1.000000 0.999023
vt -0.000000 -0.000000
vt 0.000000 0.999023
vt 0.000000 0.390630
vt 1.000000 0.000000
vt 1.000000 0.000000
vt 1.000000 0.999023
vt -0.000000 0.000000
vt 0.000000 0.390630
vt 0.000000 0.999023
vt 1.000000 -0.000000
s 1
usemtl Material15.002
f 1/1/1 2/3/2 3/5/3
f 1/1/1 4/7/4 2/3/2
f 4/8/4 5/9/5 2/4/2
f 1/2/1 3/6/3 6/10/6
usemtl Material9.002
f 7/11/7 8/15/8 9/20/9
f 9/20/9 8/15/8 10/22/10
f 9/21/9 10/23/10 7/12/7
f 11/28/11 12/31/12 13/36/13
f 13/36/13 12/31/12 14/41/14
f 13/36/13 14/41/14 15/46/15
f 15/46/15 14/41/14 16/49/16
f 17/53/17 18/57/18 19/59/19
f 20/65/20 18/57/18 17/55/17
f 20/66/20 19/60/19 18/58/18
f 21/69/21 22/73/22 23/76/23
f 22/72/22 21/70/21 24/77/24
f 21/71/21 25/79/25 24/78/24
f 21/71/21 23/74/23 25/79/25
f 26/80/26 25/79/25 23/75/23
f 23/76/23 22/73/22 26/81/26
f 27/82/27 28/86/28 29/89/29
f 28/85/28 27/83/27 30/90/30
f 27/84/27 31/92/31 30/91/30
f 27/84/27 29/87/29 31/92/31
f 32/94/32 31/93/31 29/88/29
f 29/89/29 28/86/28 32/95/32
f 33/96/33 34/97/34 35/101/35
f 34/98/34 36/102/36 35/99/35
f 36/103/36 37/104/37 35/100/35
f 38/107/38 37/104/37 36/103/36
f 33/96/33 37/105/37 38/108/38
f 33/96/33 35/101/35 37/106/37
f 39/110/39 40/111/40 41/115/41
f 40/112/40 42/116/42 41/113/41
f 42/117/42 43/118/43 41/114/41
f 44/121/44 43/118/43 42/117/42
f 39/109/39 43/119/43 44/122/44
f 39/110/39 41/115/41 43/120/43
usemtl Material8.002
f 45/123/45 8/18/8 7/12/7
f 45/123/45 11/29/11 8/16/8
f 45/125/45 46/134/46 11/30/11
f 47/137/47 48/140/48 49/143/49
f 48/140/48 47/137/47 50/148/50
f 50/150/50 47/138/47 45/124/45
f 50/149/50 45/125/45 13/37/13
f 45/132/45 51/153/51 13/38/13
f 8/17/8 13/39/13 51/154/51
f 8/18/8 11/30/11 13/40/13
f 11/30/11 46/133/46 12/32/12
f 52/167/52 12/33/12 46/134/46
f 52/167/52 17/52/17 12/34/12
f 52/159/52 20/66/20 17/53/17
f 14/42/14 17/54/17 53/171/53
f 12/35/12 17/55/17 14/43/14
f 54/177/54 16/50/16 14/43/14
f 48/140/48 54/178/54 55/183/55
f 54/178/54 52/160/52 55/182/55
f 54/179/54 14/44/14 52/161/52
f 14/45/14 53/172/53 52/162/52
f 48/140/48 55/183/55 56/185/56
f 57/190/57 58/193/58 59/196/59
f 50/150/50 13/40/13 15/47/15
f 60/202/60 61/206/61 62/211/62
f 61/208/61 60/202/60 63/214/63
f 64/216/64 63/214/63 60/202/60
f 63/215/63 64/217/64 65/222/65
f 64/218/64 66/223/66 65/221/65
f 64/219/64 67/227/67 66/225/66
f 64/220/64 60/203/60 67/228/67
f 60/204/60 66/225/66 67/229/67
f 66/225/66 60/205/60 62/213/62
f 66/224/66 62/210/62 68/233/68
f 62/212/62 69/234/69 68/230/68
f 69/235/69 62/213/62 70/240/70
f 70/237/70 62/211/62 71/241/71
f 62/212/62 72/247/72 71/244/71
f 62/213/62 61/208/61 72/246/72
f 66/225/66 72/245/72 61/207/61
f 66/225/66 68/233/68 72/245/72
f 68/231/68 73/248/73 72/246/72
f 70/238/70 73/249/73 68/232/68
f 70/240/70 74/251/74 73/249/73
f 70/239/70 71/242/71 74/252/74
f 71/243/71 73/250/73 74/253/74
f 71/244/71 72/247/72 73/250/73
f 69/236/69 70/240/70 68/233/68
f 65/221/65 66/226/66 61/208/61
f 63/215/63 65/222/65 61/209/61
f 75/254/75 76/258/76 77/262/77
f 75/254/75 78/269/78 76/258/76
f 75/257/75 79/273/79 78/268/78
f 79/272/79 75/255/75 80/275/80
f 75/256/75 81/276/81 80/274/80
f 75/257/75 77/263/77 81/278/81
f 77/264/77 82/281/82 81/278/81
f 83/286/83 82/282/82 77/265/77
f 83/287/83 84/292/84 82/283/82
f 83/288/83 85/294/85 84/290/84
f 83/289/83 86/296/86 85/295/85
f 83/289/83 77/266/77 86/297/86
f 77/266/77 76/261/76 86/297/86
f 86/298/86 76/259/76 84/292/84
f 76/259/76 87/300/87 84/291/84
f 76/260/76 82/285/82 87/301/87
f 78/267/78 82/285/82 76/261/76
f 81/277/81 82/284/82 78/268/78
f 78/269/78 88/303/88 81/278/81
f 89/306/89 88/304/88 78/270/78
f 81/279/81 88/305/88 89/307/89
f 81/280/81 89/307/89 80/274/80
f 79/272/79 80/275/80 89/308/89
f 78/271/78 79/273/79 89/309/89
f 82/285/82 84/292/84 87/302/87
f 85/295/85 86/299/86 84/293/84
usemtl Material6.002
f 45/126/45 90/310/90 46/135/46
f 45/127/45 59/197/59 91/313/91
f 59/198/59 52/163/52 91/314/91
f 90/311/90 52/164/52 46/136/46
usemtl Material7.002
f 45/128/45 52/165/52 90/312/90
f 52/165/52 45/128/45 91/315/91
f 54/180/54 15/48/15 16/51/16
f 15/48/15 54/180/54 50/151/50
usemtl Material3.002
f 45/129/45 92/316/92 59/199/59
f 50/152/50 54/181/54 48/141/48
f 59/200/59 93/321/93 52/166/52
usemtl M_7CF8406C_c.002
f 49/144/49 92/317/92 45/132/45
f 56/186/56 52/167/52 93/322/93
usemtl Material10.002
f 92/318/92 49/145/49 56/187/56
f 92/318/92 56/187/56 93/323/93
usemtl Material2.002
f 49/146/49 48/142/48 56/188/56
usemtl Material1.002
f 45/130/45 47/139/47 49/147/49
f 56/189/56 55/184/55 52/168/52
usemtl Material12.002
f 51/155/51 45/131/45 94/326/94
f 10/24/10 94/327/94 7/13/7
f 53/173/53 95/330/95 52/169/52
f 19/61/19 20/67/20 95/331/95
usemtl Material11.002
f 7/14/7 94/328/94 45/132/45
f 96/334/96 94/329/94 10/25/10
f 96/334/96 51/156/51 94/329/94
f 10/26/10 51/157/51 96/335/96
f 52/170/52 95/332/95 20/68/20
f 97/336/97 95/333/95 53/174/53
f 97/336/97 19/62/19 95/333/95
f 53/175/53 19/63/19 97/337/97
f 98/338/98 99/341/99 100/342/100
f 98/338/98 101/344/101 99/341/99
f 102/346/102 99/341/99 101/344/101
f 100/342/100 99/341/99 102/346/102
f 103/349/103 104/351/104 105/354/105
f 104/351/104 106/355/106 105/354/105
f 107/357/107 105/354/105 106/355/106
f 105/354/105 107/357/107 103/349/103
usemtl Material4.002
f 10/27/10 8/19/8 51/158/51
f 53/176/53 17/56/17 19/64/19
f 58/194/58 57/191/57 92/319/92
f 58/194/58 92/319/92 93/324/93
f 98/339/98 100/343/100 102/347/102
f 98/340/98 102/348/102 101/345/101
f 104/352/104 103/350/103 107/358/107
f 104/353/104 107/359/107 106/356/106
usemtl Material5.002
f 93/325/93 59/201/59 58/195/58
f 92/320/92 57/192/57 59/201/59
usemtl Material14.002
f 108/360/108 109/362/109 110/364/110
f 109/362/109 108/360/108 111/366/111
f 112/368/112 109/363/109 111/367/111
f 113/370/113 109/363/109 112/368/112
f 112/369/112 114/372/114 113/371/113
f 114/372/114 112/369/112 115/374/115
f 114/373/114 115/375/115 108/361/108
f 114/373/114 108/361/108 110/365/110
f 116/376/116 117/378/117 118/380/110
f 117/378/117 116/376/116 119/382/111
f 120/384/118 117/379/117 119/383/111
f 121/386/119 117/379/117 120/384/118
f 122/388/120 121/387/119 120/385/118
f 121/387/119 122/388/120 123/390/121
f 123/391/121 122/389/120 116/377/116
f 123/391/121 116/377/116 118/381/110
